<svg width="30" height="30" viewBox="0 0 30 30" fill="none" xmlns="http://www.w3.org/2000/svg">
<g clip-path="url(#clip0_1_74)">
<path d="M29.9842 15.2807C29.9842 14.0516 29.8821 13.1547 29.6613 12.2245H15.2988V17.772H23.7292C23.5593 19.1507 22.6415 21.2268 20.6018 22.622L20.5732 22.8077L25.1144 26.2454L25.429 26.2761C28.3184 23.6684 29.9842 19.8316 29.9842 15.2807Z" fill="#4285F4"/>
<path d="M15.2988 29.897C19.429 29.897 22.8963 28.5681 25.4289 26.2761L20.6018 22.622C19.31 23.5023 17.5763 24.1168 15.2988 24.1168C11.2535 24.1168 7.82016 21.5092 6.59626 17.905L6.41687 17.9199L1.69493 21.4909L1.63318 21.6586C4.1487 26.5418 9.31578 29.897 15.2988 29.897Z" fill="#34A853"/>
<path d="M6.59634 17.905C6.2734 16.9748 6.08651 15.9782 6.08651 14.9485C6.08651 13.9186 6.2734 12.9221 6.57935 11.992L6.57079 11.7939L1.78968 8.1655L1.63325 8.23821C0.596487 10.2646 0.00158691 12.5401 0.00158691 14.9485C0.00158691 17.3568 0.596487 19.6323 1.63325 21.6586L6.59634 17.905Z" fill="#FBBC05"/>
<path d="M15.2988 5.78007C18.1712 5.78007 20.1088 6.99255 21.2137 8.00579L25.5309 3.88663C22.8794 1.47827 19.429 3.05176e-05 15.2988 3.05176e-05C9.31578 3.05176e-05 4.1487 3.35511 1.63318 8.23824L6.57927 11.992C7.82016 8.38778 11.2535 5.78007 15.2988 5.78007Z" fill="#EB4335"/>
</g>
<defs>
<clipPath id="clip0_1_74">
<rect width="30" height="30" fill="white"/>
</clipPath>
</defs>
</svg>
