<svg width="20" height="20" viewBox="0 0 20 20" fill="none" xmlns="http://www.w3.org/2000/svg">    <path d="M8.33333 18.2292C8.33333 18.6436 8.49795 19.041 8.79098 19.334C9.084 19.627 9.48143 19.7917 9.89583 19.7917C10.3102 19.7917 10.7077 19.627 11.0007 19.334C11.2937 19.041 11.4583 18.6436 11.4583 18.2292V11.4583H18.2292C18.6436 11.4583 19.041 11.2937 19.334 11.0007C19.627 10.7077 19.7917 10.3102 19.7917 9.89583C19.7917 9.48143 19.627 9.084 19.334 8.79098C19.041 8.49795 18.6436 8.33333 18.2292 8.33333H11.4583V1.5625C11.4583 1.1481 11.2937 0.750671 11.0007 0.457646C10.7077 0.16462 10.3102 0 9.89583 0C9.48143 0 9.084 0.16462 8.79098 0.457646C8.49795 0.750671 8.33333 1.1481 8.33333 1.5625V8.33333H1.5625C1.1481 8.33333 0.750671 8.49795 0.457646 8.79098C0.16462 9.084 0 9.48143 0 9.89583C0 10.3102 0.16462 10.7077 0.457646 11.0007C0.750671 11.2937 1.1481 11.4583 1.5625 11.4583H8.33333V18.2292Z" fill="#EEEEEE"/></svg>