<svg width="15" height="16" viewBox="0 0 15 16" fill="none" xmlns="http://www.w3.org/2000/svg">
    <path fill-rule="evenodd" clip-rule="evenodd" d="M13.9998 0C14.265 0 14.5194 0.105357 14.7069 0.292893C14.8944 0.48043 14.9998 0.734784 14.9998 1V8C14.9998 8.79565 14.6837 9.55871 14.1211 10.1213C13.5585 10.6839 12.7954 11 11.9998 11H3.41379L6.20679 13.793C6.38894 13.9816 6.48974 14.2342 6.48746 14.4964C6.48518 14.7586 6.38001 15.0094 6.1946 15.1948C6.0092 15.3802 5.75838 15.4854 5.49619 15.4877C5.23399 15.49 4.98139 15.3892 4.79279 15.207L0.292787 10.707C0.105316 10.5195 0 10.2652 0 10C0 9.73484 0.105316 9.48053 0.292787 9.293L4.79279 4.793C4.98139 4.61084 5.23399 4.51005 5.49619 4.51233C5.75838 4.5146 6.0092 4.61977 6.1946 4.80518C6.38001 4.99059 6.48518 5.2414 6.48746 5.5036C6.48974 5.7658 6.38894 6.0184 6.20679 6.207L3.41379 9H11.9998C12.265 9 12.5194 8.89464 12.7069 8.70711C12.8944 8.51957 12.9998 8.26522 12.9998 8V1C12.9998 0.734784 13.1051 0.48043 13.2927 0.292893C13.4802 0.105357 13.7346 0 13.9998 0Z" fill="url(#paint0_linear_586_11348)"/>
    <defs>
        <linearGradient id="paint0_linear_586_11348" x1="14.4919" y1="2.96119e-07" x2="-0.477843" y2="14.9314" gradientUnits="userSpaceOnUse">
            <stop stop-color="#CF11FF"/>
            <stop offset="0.5" stop-color="#0CAAFF"/>
            <stop offset="1" stop-color="#0230FF"/>
        </linearGradient>
    </defs>
</svg>
