<svg width="25" height="24" viewBox="0 0 25 24" fill="none" xmlns="http://www.w3.org/2000/svg">    <path d="M18.1259 10C19.3204 9.99991 20.4942 10.311 21.5319 10.9027C22.5695 11.4943 23.4351 12.3461 24.0433 13.3741C24.6515 14.4021 24.9815 15.5708 25.0005 16.7651C25.0196 17.9594 24.7272 19.1381 24.1522 20.185L24.6347 21.8237C24.6984 22.0403 24.7027 22.2701 24.6469 22.4889C24.5912 22.7076 24.4775 22.9073 24.3179 23.067C24.1583 23.2266 23.9585 23.3403 23.7398 23.396C23.521 23.4518 23.2912 23.4475 23.0747 23.3838L21.4372 22.9012C20.5183 23.4058 19.4963 23.6935 18.4492 23.7425C17.4022 23.7915 16.3577 23.6003 15.3959 23.1838C14.434 22.7672 13.5801 22.1362 12.8994 21.339C12.2188 20.5417 11.7295 19.5995 11.4689 18.5841C11.2083 17.5688 11.1834 16.5074 11.3959 15.4809C11.6085 14.4545 12.0529 13.4902 12.6953 12.6619C13.3377 11.8335 14.1609 11.1631 15.1022 10.7017C16.0434 10.2404 17.0777 10.0003 18.1259 10ZM11.2509 3.67269e-08C13.7383 0.000341483 16.1555 0.824672 18.1249 2.34418C20.0942 3.86369 21.5047 5.99278 22.1359 8.39875C20.244 7.50202 18.1064 7.26437 16.0638 7.72367C14.0211 8.18298 12.191 9.31281 10.8651 10.9331C9.53922 12.5534 8.79383 14.5709 8.74776 16.664C8.70168 18.7571 9.35758 20.8054 10.6109 22.4825C8.80199 22.382 7.04454 21.8436 5.48966 20.9138L2.17716 21.8888C1.95989 21.9528 1.72935 21.9572 1.50983 21.9013C1.2903 21.8454 1.0899 21.7314 0.929725 21.5712C0.769546 21.411 0.655512 21.2106 0.599626 20.9911C0.543741 20.7716 0.54807 20.541 0.612159 20.3238L1.58716 17.0112C0.56895 15.3035 0.0215206 13.3564 0.000621659 11.3683C-0.0202773 9.3801 0.486101 7.42193 1.46819 5.69315C2.45027 3.96437 3.87298 2.52674 5.59142 1.52668C7.30986 0.526614 9.26265 -0.000160598 11.2509 3.67269e-08Z" fill="url(#paint0_linear_586_11332)"/>    <defs>        <linearGradient id="paint0_linear_586_11332" x1="24.1549" y1="4.54091e-07" x2="1.27382" y2="24.8065" gradientUnits="userSpaceOnUse">            <stop stop-color="#CF11FF"/>            <stop offset="0.5" stop-color="#0CAAFF"/>            <stop offset="1" stop-color="#0230FF"/>        </linearGradient>    </defs></svg>