<svg width="25" height="25" viewBox="0 0 25 25" fill="none" xmlns="http://www.w3.org/2000/svg">    <path fill-rule="evenodd" clip-rule="evenodd" d="M12.5 0C19.4037 0 25 5.59625 25 12.5C25 19.4037 19.4037 25 12.5 25C5.59625 25 0 19.4037 0 12.5C0 5.59625 5.59625 0 12.5 0ZM14.98 15.3125C14.3175 15.8975 13.4513 16.25 12.5 16.25C11.5868 16.2499 10.7049 15.9166 10.02 15.3125C9.77136 15.093 9.44572 14.9813 9.11472 15.002C8.78372 15.0226 8.47447 15.1739 8.255 15.4225C8.03553 15.6711 7.92383 15.9968 7.94446 16.3278C7.96509 16.6588 8.11636 16.968 8.365 17.1875C9.50699 18.1946 10.9774 18.7502 12.5 18.75C14.0231 18.7526 15.4942 18.1967 16.635 17.1875C16.8836 16.968 17.0349 16.6588 17.0555 16.3278C17.0762 15.9968 16.9645 15.6711 16.745 15.4225C16.5255 15.1739 16.2163 15.0226 15.8853 15.002C15.5543 14.9813 15.2286 15.093 14.98 15.3125ZM8.125 7.5C6.76625 7.5 5.6775 8.35 5.1325 9.44C4.98923 9.72517 4.96046 10.0543 5.05208 10.3601C5.14371 10.6658 5.3488 10.9248 5.62531 11.0842C5.90182 11.2435 6.22881 11.2911 6.53925 11.2171C6.8497 11.1431 7.12009 10.9532 7.295 10.6862L7.3675 10.56C7.57 10.155 7.88 10 8.125 10C8.3375 10 8.6025 10.1188 8.80125 10.42L8.8825 10.56C9.03255 10.8537 9.29263 11.0763 9.60604 11.1791C9.91945 11.2819 10.2608 11.2567 10.5557 11.1089C10.8506 10.9611 11.0751 10.7028 11.1803 10.3902C11.2856 10.0776 11.263 9.73602 11.1175 9.44C10.5712 8.35 9.48375 7.5 8.125 7.5ZM16.875 7.5C15.5162 7.5 14.4288 8.35 13.8825 9.44C13.7392 9.72517 13.7105 10.0543 13.8021 10.3601C13.8937 10.6658 14.0988 10.9248 14.3753 11.0842C14.6518 11.2435 14.9788 11.2911 15.2893 11.2171C15.5997 11.1431 15.8701 10.9532 16.045 10.6862L16.1175 10.56C16.32 10.155 16.63 10 16.875 10C17.0875 10 17.3525 10.1188 17.5513 10.42L17.6325 10.56C17.7053 10.7081 17.8066 10.8402 17.9307 10.9489C18.0548 11.0576 18.1992 11.1407 18.3555 11.1933C18.5119 11.246 18.6771 11.2671 18.8417 11.2556C19.0062 11.2441 19.1669 11.2001 19.3144 11.1262C19.4618 11.0523 19.5932 10.9499 19.701 10.825C19.8087 10.7001 19.8906 10.555 19.9421 10.3983C19.9935 10.2415 20.0134 10.0762 20.0006 9.91169C19.9878 9.74722 19.9425 9.58691 19.8675 9.44C19.3225 8.35 18.2337 7.5 16.875 7.5Z" fill="url(#paint0_linear_459_9603)"/>    <defs>        <linearGradient id="paint0_linear_459_9603" x1="24.1535" y1="4.7799e-07" x2="-1.56314e-07" y2="24.8753" gradientUnits="userSpaceOnUse">            <stop stop-color="#CF11FF"/>            <stop offset="0.5" stop-color="#0CAAFF"/>            <stop offset="1" stop-color="#0230FF"/>        </linearGradient>    </defs></svg>