<svg width="25" height="25" viewBox="0 0 25 25" fill="none" xmlns="http://www.w3.org/2000/svg">
    <path d="M12.5 0C19.4037 0 25 5.59625 25 12.5C25 19.4037 19.4037 25 12.5 25C5.59625 25 0 19.4037 0 12.5C0 5.59625 5.59625 0 12.5 0ZM16.4587 12.5H8.54125C7.33875 12.5 6.35375 13.425 6.2575 14.6037L6.25 14.7913V15C6.25211 16.6327 6.89304 18.1998 8.0357 19.366C9.17835 20.5322 10.732 21.205 12.3643 21.2405C13.9967 21.2759 15.5781 20.6712 16.7702 19.5556C17.9624 18.4401 18.6708 16.9023 18.7438 15.2712L18.75 15V14.7913C18.75 13.5887 17.825 12.6037 16.6462 12.5075L16.4587 12.5ZM16.25 15C16.2509 15.9761 15.8712 16.9142 15.1915 17.6148C14.5118 18.3154 13.5858 18.7234 12.61 18.752C11.6343 18.7806 10.6859 18.4277 9.96629 17.7682C9.24667 17.1086 8.81258 16.1945 8.75625 15.22L8.75 15H16.25ZM8.75 5C8.41848 5 8.10054 5.1317 7.86612 5.36612C7.6317 5.60054 7.5 5.91848 7.5 6.25V8.75C7.5 9.08152 7.6317 9.39946 7.86612 9.63388C8.10054 9.8683 8.41848 10 8.75 10C9.08152 10 9.39946 9.8683 9.63388 9.63388C9.8683 9.39946 10 9.08152 10 8.75V6.25C10 5.91848 9.8683 5.60054 9.63388 5.36612C9.39946 5.1317 9.08152 5 8.75 5ZM15.3663 5.36625L14.1163 6.61625C13.8819 6.85066 13.7503 7.16854 13.7503 7.5C13.7503 7.83146 13.8819 8.14934 14.1163 8.38375L15.3663 9.63375C15.602 9.86145 15.9178 9.98744 16.2455 9.98459C16.5732 9.98174 16.8868 9.85028 17.1185 9.61852C17.3503 9.38676 17.4817 9.07325 17.4846 8.7455C17.4874 8.41776 17.3614 8.102 17.1337 7.86625L16.7675 7.5L17.1337 7.13375C17.3614 6.898 17.4874 6.58224 17.4846 6.2545C17.4817 5.92675 17.3503 5.61324 17.1185 5.38148C16.8868 5.14972 16.5732 5.01826 16.2455 5.01541C15.9178 5.01256 15.602 5.13855 15.3663 5.36625Z" fill="url(#paint0_linear_459_9607)"/>
    <defs>
        <linearGradient id="paint0_linear_459_9607" x1="24.1535" y1="4.7799e-07" x2="-1.56314e-07" y2="24.8753" gradientUnits="userSpaceOnUse">
            <stop stop-color="#CF11FF"/>
            <stop offset="0.5" stop-color="#0CAAFF"/>
            <stop offset="1" stop-color="#0230FF"/>
        </linearGradient>
    </defs>
</svg>
