<svg width="18" height="25" viewBox="0 0 18 25" fill="none" xmlns="http://www.w3.org/2000/svg">    <path d="M11.25 0C12.9076 0 14.4973 0.65848 15.6694 1.83058C16.8415 3.00269 17.5 4.5924 17.5 6.25V23.75C17.5 23.9763 17.4386 24.1984 17.3223 24.3925C17.2061 24.5867 17.0392 24.7456 16.8397 24.8523C16.6402 24.9591 16.4154 25.0097 16.1894 24.9987C15.9633 24.9877 15.7445 24.9156 15.5562 24.79L8.75 20.2525L1.945 24.79C1.76662 24.9094 1.5605 24.9808 1.3465 24.9974C1.1325 25.014 0.91783 24.9753 0.723163 24.8848C0.528497 24.7944 0.360395 24.6554 0.235049 24.4811C0.109703 24.3069 0.0313379 24.1033 0.00750005 23.89L0 23.75V6.25C0 4.5924 0.65848 3.00269 1.83058 1.83058C3.00269 0.65848 4.5924 0 6.25 0H11.25Z" fill="url(#paint0_linear_586_13291)"/>    <defs>        <linearGradient id="paint0_linear_586_13291" x1="16.9074" y1="4.78013e-07" x2="-6.01884" y2="16.5272" gradientUnits="userSpaceOnUse">            <stop stop-color="#CF11FF"/>            <stop offset="0.5" stop-color="#0CAAFF"/>            <stop offset="1" stop-color="#0230FF"/>        </linearGradient>    </defs></svg>