<svg width="175" height="27" viewBox="0 0 175 27" fill="none" xmlns="http://www.w3.org/2000/svg">
<path d="M0 18.8965H4.58789C4.62305 19.3652 4.75195 19.8105 4.97461 20.2324C5.20898 20.6543 5.53125 21.0293 5.94141 21.3574C6.36328 21.6855 6.87305 21.9434 7.4707 22.1309C8.08008 22.3184 8.77734 22.4121 9.5625 22.4121C10.5352 22.4121 11.3555 22.2773 12.0234 22.0078C12.6914 21.7266 13.2012 21.3398 13.5527 20.8477C13.9043 20.3438 14.0801 19.7578 14.0801 19.0898C14.0801 18.2461 13.7754 17.5898 13.166 17.1211C12.5566 16.6406 11.6309 16.2598 10.3887 15.9785L6.67969 15.1172C5.58984 14.8711 4.58203 14.4902 3.65625 13.9746C2.73047 13.4473 1.98633 12.7383 1.42383 11.8477C0.873047 10.9453 0.597656 9.82617 0.597656 8.49023C0.597656 6.93164 0.996094 5.61328 1.79297 4.53516C2.60156 3.44531 3.68555 2.625 5.04492 2.07422C6.4043 1.51172 7.9043 1.23047 9.54492 1.23047C11.2676 1.23047 12.791 1.52344 14.1152 2.10938C15.4512 2.69531 16.5 3.52148 17.2617 4.58789C18.0352 5.6543 18.4336 6.9082 18.457 8.34961H13.9922C13.9453 7.75195 13.752 7.19531 13.4121 6.67969C13.0723 6.16406 12.5801 5.74805 11.9355 5.43164C11.291 5.11523 10.4883 4.95703 9.52734 4.95703C8.25 4.95703 7.23047 5.23828 6.46875 5.80078C5.71875 6.36328 5.34375 7.13672 5.34375 8.12109C5.34375 8.84766 5.61914 9.45703 6.16992 9.94922C6.73242 10.4297 7.55273 10.7871 8.63086 11.0215L12.3574 11.8828C13.541 12.1406 14.6191 12.5273 15.5918 13.043C16.5645 13.5586 17.3438 14.2676 17.9297 15.1699C18.5156 16.0605 18.8086 17.2207 18.8086 18.6504C18.8086 20.2207 18.416 21.5684 17.6309 22.6934C16.8457 23.8184 15.7441 24.6797 14.3262 25.2773C12.9082 25.875 11.2324 26.1738 9.29883 26.1738C7.56445 26.1738 6.10547 25.957 4.92188 25.5234C3.73828 25.0898 2.78906 24.5156 2.07422 23.8008C1.35938 23.0859 0.837891 22.3008 0.509766 21.4453C0.181641 20.5898 0.0117188 19.7402 0 18.8965ZM27.668 25.998C25.8516 25.998 24.375 25.4941 23.2383 24.4863C22.1016 23.4785 21.5332 22.0957 21.5332 20.3379C21.5332 18.6621 22.0957 17.332 23.2207 16.3477C24.3574 15.3516 26.0098 14.8535 28.1777 14.8535H32.7305V13.166C32.7305 12.2402 32.4609 11.5254 31.9219 11.0215C31.3828 10.5176 30.627 10.2656 29.6543 10.2656C29.0332 10.2656 28.4941 10.3711 28.0371 10.582C27.5801 10.7812 27.2285 11.0742 26.9824 11.4609C26.7363 11.8359 26.5898 12.2695 26.543 12.7617H22.2188C22.2539 11.9883 22.4121 11.2441 22.6934 10.5293C22.9863 9.81445 23.4258 9.17578 24.0117 8.61328C24.6094 8.03906 25.377 7.58789 26.3145 7.25977C27.2637 6.93164 28.4062 6.76758 29.7422 6.76758C31.1719 6.76758 32.4551 6.99609 33.5918 7.45312C34.7402 7.91016 35.6426 8.60742 36.2988 9.54492C36.9668 10.4707 37.3008 11.6602 37.3008 13.1133V25.7168H32.9238V23.4492H32.7305C32.4844 23.9062 32.1387 24.3281 31.6934 24.7148C31.2598 25.1016 30.709 25.4121 30.041 25.6465C29.3848 25.8809 28.5938 25.998 27.668 25.998ZM29.1621 22.623C29.8301 22.623 30.4336 22.5 30.9727 22.2539C31.5117 21.9961 31.9395 21.6387 32.2559 21.1816C32.5723 20.7246 32.7305 20.1973 32.7305 19.5996V17.6309H29.1797C28.1602 17.6309 27.3984 17.8535 26.8945 18.2988C26.3906 18.7324 26.1387 19.3125 26.1387 20.0391C26.1387 20.9062 26.4492 21.5566 27.0703 21.9902C27.6914 22.4121 28.3887 22.623 29.1621 22.623ZM58.0078 7.06641V25.7168H53.4902V22.9922H53.2793C53.0918 23.4727 52.7695 23.9473 52.3125 24.416C51.8555 24.873 51.2637 25.2539 50.5371 25.5586C49.8105 25.8516 48.9316 25.998 47.9004 25.998C46.623 25.998 45.5039 25.752 44.543 25.2598C43.5938 24.7676 42.8496 24.0352 42.3105 23.0625C41.7832 22.0781 41.5195 20.8535 41.5195 19.3887V7.06641H46.1426V18.1582C46.1426 19.1895 46.3125 19.9922 46.6523 20.5664C47.0039 21.1289 47.4492 21.5215 47.9883 21.7441C48.5273 21.9668 49.1016 22.0781 49.7109 22.0781C50.4141 22.0781 51.0352 21.9316 51.5742 21.6387C52.125 21.334 52.5586 20.8887 52.875 20.3027C53.2031 19.7168 53.3672 18.9844 53.3672 18.1055V7.06641H58.0078ZM62.6133 25.7168V7.06641H67.1133V9.79102H67.3066C67.5059 9.35742 67.834 8.91211 68.291 8.45508C68.748 7.98633 69.3398 7.58789 70.0664 7.25977C70.8047 6.93164 71.6895 6.76758 72.7207 6.76758C74.6309 6.76758 76.1836 7.35352 77.3789 8.52539C78.5742 9.69727 79.1719 11.4258 79.1719 13.7109V25.7168H74.5488V14.7129C74.5488 13.752 74.3789 12.9785 74.0391 12.3926C73.7109 11.8066 73.2715 11.3789 72.7207 11.1094C72.1699 10.8398 71.5664 10.7051 70.9102 10.7051C70.1133 10.7051 69.4395 10.8809 68.8887 11.2324C68.3496 11.584 67.9336 12.0703 67.6406 12.6914C67.3594 13.3008 67.2188 13.998 67.2188 14.7832V25.7168H62.6133ZM89.9648 6.82031C90.8086 6.82031 91.5762 6.94922 92.2676 7.20703C92.9707 7.45312 93.5742 7.79883 94.0781 8.24414C94.5938 8.68945 94.9922 9.20508 95.2734 9.79102H95.4492V0.457031H100.09V25.7168H95.5371V22.834H95.3438C95.1328 23.3145 94.8516 23.748 94.5 24.1348C94.1484 24.5098 93.7441 24.832 93.2871 25.1016C92.8301 25.3711 92.3203 25.5762 91.7578 25.7168C91.207 25.8691 90.6094 25.9453 89.9648 25.9453C88.4531 25.9453 87.1641 25.5879 86.0977 24.873C85.043 24.1582 84.2344 23.1445 83.6719 21.832C83.1094 20.5195 82.8281 18.9609 82.8281 17.1562V15.5918C82.8281 13.8105 83.1152 12.2637 83.6895 10.9512C84.2637 9.63867 85.084 8.625 86.1504 7.91016C87.2168 7.18359 88.4883 6.82031 89.9648 6.82031ZM91.4414 10.5293C90.7031 10.5293 90.041 10.7227 89.4551 11.1094C88.8691 11.4844 88.4062 12.0586 88.0664 12.832C87.7383 13.6055 87.5742 14.5781 87.5742 15.75V17.0332C87.5742 18.1934 87.7441 19.166 88.084 19.9512C88.4238 20.7246 88.8867 21.3047 89.4727 21.6914C90.0586 22.0664 90.7266 22.2539 91.4766 22.2539C92.2969 22.2539 93.0059 22.0547 93.6035 21.6562C94.2012 21.2578 94.6641 20.6719 94.9922 19.8984C95.3203 19.125 95.4844 18.1758 95.4844 17.0508V15.75C95.4844 14.6602 95.3145 13.7285 94.9746 12.9551C94.6465 12.1699 94.1777 11.5723 93.5684 11.1621C92.9707 10.7402 92.2617 10.5293 91.4414 10.5293ZM111.393 25.7168L103.377 1.72266H108.879L114.275 20.3555H114.469L119.795 1.72266H125.068L117.105 25.7168H111.393ZM128.039 25.7168V7.06641H132.662V25.7168H128.039ZM127.723 2.44336C127.723 1.7168 127.98 1.13086 128.496 0.685547C129.012 0.228516 129.627 0 130.342 0C131.068 0 131.684 0.228516 132.188 0.685547C132.703 1.13086 132.961 1.7168 132.961 2.44336C132.961 3.1582 132.703 3.74414 132.188 4.20117C131.684 4.64648 131.068 4.86914 130.342 4.86914C129.627 4.86914 129.012 4.64648 128.496 4.20117C127.98 3.74414 127.723 3.1582 127.723 2.44336ZM147.691 25.9629C146.812 25.9629 146.021 25.834 145.318 25.5762C144.615 25.3184 144.006 24.9609 143.49 24.5039C142.986 24.0352 142.576 23.4785 142.26 22.834H142.084V25.7168H137.514V0.457031H142.154V9.77344H142.348C142.559 9.33984 142.84 8.94141 143.191 8.57812C143.543 8.21484 143.947 7.9043 144.404 7.64648C144.873 7.37695 145.389 7.17188 145.951 7.03125C146.514 6.89062 147.1 6.82031 147.709 6.82031C149.127 6.82031 150.363 7.1543 151.418 7.82227C152.484 8.49023 153.316 9.47461 153.914 10.7754C154.512 12.0645 154.811 13.6582 154.811 15.5566V17.1914C154.811 19.0547 154.512 20.6367 153.914 21.9375C153.328 23.2383 152.502 24.2344 151.436 24.9258C150.381 25.6172 149.133 25.9629 147.691 25.9629ZM146.232 22.2715C146.994 22.2715 147.662 22.0723 148.236 21.6738C148.811 21.2637 149.256 20.6719 149.572 19.8984C149.9 19.125 150.064 18.1699 150.064 17.0332V15.75C150.064 14.6016 149.9 13.6465 149.572 12.8848C149.256 12.1113 148.811 11.5254 148.236 11.127C147.662 10.7285 146.994 10.5293 146.232 10.5293C145.4 10.5293 144.674 10.7285 144.053 11.127C143.443 11.5137 142.969 12.0938 142.629 12.8672C142.289 13.6289 142.119 14.5898 142.119 15.75V17.0156C142.119 18.1641 142.283 19.125 142.611 19.8984C142.951 20.6719 143.432 21.2637 144.053 21.6738C144.674 22.0723 145.4 22.2715 146.232 22.2715ZM166.395 26.0508C164.695 26.0508 163.207 25.7051 161.93 25.0137C160.664 24.3223 159.68 23.3145 158.977 21.9902C158.285 20.6543 157.939 19.0371 157.939 17.1387V15.4336C157.939 13.6055 158.285 12.0469 158.977 10.7578C159.68 9.45703 160.652 8.46094 161.895 7.76953C163.137 7.07813 164.572 6.73242 166.201 6.73242C167.9 6.73242 169.365 7.0957 170.596 7.82227C171.826 8.54883 172.77 9.57422 173.426 10.8984C174.094 12.2109 174.428 13.7637 174.428 15.5566V17.3848H162.475V17.8945C162.475 19.3008 162.838 20.4258 163.564 21.2695C164.303 22.1016 165.258 22.5176 166.43 22.5176C167.039 22.5176 167.584 22.4238 168.064 22.2363C168.557 22.0371 168.961 21.7559 169.277 21.3926C169.605 21.0293 169.834 20.5957 169.963 20.0918H174.252C174.146 20.8418 173.906 21.5742 173.531 22.2891C173.168 22.9922 172.664 23.625 172.02 24.1875C171.387 24.75 170.602 25.2012 169.664 25.541C168.727 25.8809 167.637 26.0508 166.395 26.0508ZM162.475 14.4492H169.945C169.945 14.4375 169.945 14.4316 169.945 14.4316C169.945 14.4316 169.945 14.4258 169.945 14.4141C169.945 13.6172 169.793 12.8965 169.488 12.252C169.184 11.6074 168.75 11.1035 168.188 10.7402C167.637 10.3652 166.986 10.1777 166.236 10.1777C165.475 10.1777 164.812 10.3652 164.25 10.7402C163.688 11.1035 163.248 11.6074 162.932 12.252C162.627 12.8965 162.475 13.6172 162.475 14.4141C162.475 14.4258 162.475 14.4316 162.475 14.4316C162.475 14.4316 162.475 14.4375 162.475 14.4492Z" fill="url(#paint0_linear_1_40)"/>
<defs>
<linearGradient id="paint0_linear_1_40" x1="-100.549" y1="31.7168" x2="275.451" y2="31.7168" gradientUnits="userSpaceOnUse">
<stop stop-color="#3A79F6"/>
<stop offset="1" stop-color="#04C3FE"/>
</linearGradient>
</defs>
</svg>
